<?xml version="1.0" encoding="UTF-8" standalone="no"?>
<svg
   width="16"
   height="16"
   viewBox="0 0 16 16"
   fill="currentColor"
   version="1.1"
   id="svg1"
   sodipodi:docname="icon.svg"
   xml:space="preserve"
   inkscape:version="1.3.2 (091e20e, 2023-11-25, custom)"
   inkscape:export-filename="icon.png"
   inkscape:export-xdpi="768"
   inkscape:export-ydpi="768"
   xmlns:inkscape="http://www.inkscape.org/namespaces/inkscape"
   xmlns:sodipodi="http://sodipodi.sourceforge.net/DTD/sodipodi-0.dtd"
   xmlns="http://www.w3.org/2000/svg"
   xmlns:svg="http://www.w3.org/2000/svg"><defs
     id="defs1" /><sodipodi:namedview
     id="namedview1"
     pagecolor="#ffffff"
     bordercolor="#000000"
     borderopacity="0.25"
     inkscape:showpageshadow="2"
     inkscape:pageopacity="0.0"
     inkscape:pagecheckerboard="0"
     inkscape:deskcolor="#d1d1d1"
     inkscape:zoom="77.4375"
     inkscape:cx="12.306699"
     inkscape:cy="7.1864407"
     inkscape:window-width="5120"
     inkscape:window-height="1417"
     inkscape:window-x="-8"
     inkscape:window-y="-8"
     inkscape:window-maximized="1"
     inkscape:current-layer="g2" /><g
     id="g2"><path
       d="m 13.85,4.4400002 -3.28,-3.3 -0.35,-0.14 H 2.5000003 l -0.5,0.5 V 14.5 l 0.5,0.5 H 13.5 L 14,14.5 V 4.8000002 Z"
       id="path1-0"
       sodipodi:nodetypes="ccccccccccc"
       style="fill:#ffffff" /><path
       d="M 13.85,4.44 10.57,1.14 10.22,1 H 2.5 L 2,1.5 v 13 L 2.5,15 h 11 L 14,14.5 V 4.8 Z M 13,5 H 10 V 2 Z M 3,14 V 2 H 9 V 5.5 L 9.5,6 H 13 v 8 z"
       id="path2"
       style="fill:#000000" /><path
       d="m 4.646521,2.6307507 h 2.333334 v 0.092667 c 0,0.1353333 -0.02867,0.2593333 -0.086,0.3723333 -0.05733,0.113 -0.14,0.21 -0.247334,0.2916667 V 4.340751 c 0.102334,0.048333 0.194334,0.1093334 0.276,0.182 0.08167,0.073 0.152,0.1546667 0.211,0.245 0.059,0.09 0.103334,0.1883334 0.132667,0.294 0.02967,0.106 0.04533,0.2153334 0.047,0.3283334 V 5.5567506 H 5.979855 v 1.074 L 5.813188,6.9640839 5.646521,6.6307506 v -1.074 H 4.313188 V 5.390084 c 0,-0.113 0.01567,-0.2213334 0.04667,-0.3256667 0.03133,-0.104 0.07567,-0.2023333 0.133333,-0.2943333 A 1.1346667,1.1346667 0 0 1 4.979858,4.3407506 V 3.3874173 A 0.85366666,0.85366666 0 0 1 4.735191,3.0957506 0.83499999,0.83499999 0 0 1 4.646521,2.7234173 Z m 0.362,0.2593333 c 0.014,0.041667 0.03133,0.077333 0.052,0.1066666 A 0.498,0.498 0 0 0 5.214188,3.140084 l 0.099,0.062333 v 1.3673333 l -0.112,0.039 c -0.137,0.048667 -0.253333,0.1276667 -0.349,0.237 C 4.756858,4.9550837 4.676521,5.1550837 4.646521,5.297417 H 6.979855 C 6.950525,5.1550837 6.869855,4.9550837 6.774188,4.8457503 a 0.81866666,0.81866666 0 0 0 -0.349,-0.2366666 l -0.112,-0.039667 v -1.367 l 0.099,-0.06 c 0.03133,-0.019 0.059,-0.040667 0.08333,-0.065 a 0.75999999,0.75999999 0 0 0 0.07,-0.080667 0.32266666,0.32266666 0 0 0 0.05233,-0.1066666 z"
       id="path1"
       style="stroke-width:1" /></g></svg>
